<?xml version="1.0" encoding="UTF-8" ?>
<!DOCTYPE svg PUBLIC "-//W3C//DTD SVG 1.1//EN" "http://www.w3.org/Graphics/SVG/1.1/DTD/svg11.dtd">
<svg width="527pt" height="304pt" viewBox="0 0 527 304" version="1.1" xmlns="http://www.w3.org/2000/svg">
<path fill="#ffffff" d=" M 0.00 0.00 L 190.56 0.00 C 184.99 3.81 182.62 11.12 184.28 17.57 C 186.75 28.22 194.41 36.46 200.41 45.26 C 171.85 55.79 146.16 74.88 129.57 100.58 C 115.96 121.26 108.70 146.18 109.77 170.97 C 110.38 200.60 122.83 229.45 142.78 251.20 C 158.78 268.89 179.28 282.40 201.68 290.51 C 252.13 309.15 312.53 300.83 354.36 266.38 C 375.35 249.56 391.24 226.21 398.24 200.17 C 402.77 182.88 403.69 164.57 400.44 146.96 C 393.19 106.20 364.15 71.31 327.54 52.97 C 333.70 44.61 342.20 37.67 345.88 27.70 C 348.37 21.53 346.69 13.78 341.28 9.73 C 337.64 6.90 332.79 7.16 328.47 7.67 C 316.19 10.43 305.67 17.65 295.04 24.01 C 290.89 14.70 282.82 6.68 272.67 4.41 C 267.97 3.86 263.03 3.87 258.61 5.79 C 250.58 8.58 244.36 14.62 238.12 20.14 C 229.08 12.36 219.61 4.67 208.54 0.00 L 527.00 0.00 L 527.00 304.00 L 0.00 304.00 L 0.00 0.00 Z" />
<path fill="#000000" d=" M 190.56 0.00 L 208.54 0.00 C 219.61 4.67 229.08 12.36 238.12 20.14 C 244.36 14.62 250.58 8.58 258.61 5.79 C 263.03 3.87 267.97 3.86 272.67 4.41 C 282.82 6.68 290.89 14.70 295.04 24.01 C 305.67 17.65 316.19 10.43 328.47 7.67 C 332.79 7.16 337.64 6.90 341.28 9.73 C 346.69 13.78 348.37 21.53 345.88 27.70 C 342.20 37.67 333.70 44.61 327.54 52.97 C 364.15 71.31 393.19 106.20 400.44 146.96 C 403.69 164.57 402.77 182.88 398.24 200.17 C 391.24 226.21 375.35 249.56 354.36 266.38 C 312.53 300.83 252.13 309.15 201.68 290.51 C 179.28 282.40 158.78 268.89 142.78 251.20 C 122.83 229.45 110.38 200.60 109.77 170.97 C 108.70 146.18 115.96 121.26 129.57 100.58 C 146.16 74.88 171.85 55.79 200.41 45.26 C 194.41 36.46 186.75 28.22 184.28 17.57 C 182.62 11.12 184.99 3.81 190.56 0.00 Z" />
<path fill="#ffffff" d=" M 195.51 9.55 C 196.89 7.33 199.83 8.11 201.90 8.66 C 210.75 11.22 217.93 17.30 225.15 22.75 C 229.03 25.63 232.17 29.41 236.20 32.10 C 238.58 33.78 241.47 31.99 243.10 30.11 C 249.28 23.24 256.47 16.14 265.94 14.47 C 270.49 13.42 274.79 15.94 278.00 18.92 C 281.40 22.00 283.61 26.07 285.80 30.04 C 287.27 32.65 287.87 36.04 290.83 37.46 C 291.63 37.46 293.25 37.46 294.05 37.46 C 302.54 31.98 310.70 25.86 320.00 21.77 C 324.43 19.59 329.15 17.48 334.19 17.61 C 337.33 18.88 336.95 23.15 335.60 25.62 C 330.04 35.43 321.18 42.80 315.09 52.24 C 313.49 55.08 315.04 58.73 318.04 59.81 C 336.25 68.42 352.86 80.75 365.51 96.52 C 381.50 116.01 391.54 140.76 391.88 166.10 C 392.26 183.04 388.92 200.12 381.67 215.48 C 371.52 237.77 353.98 256.30 333.17 269.02 C 292.85 293.53 240.56 296.46 197.44 277.68 C 163.95 263.35 135.79 235.06 124.92 199.92 C 119.87 183.14 118.55 165.16 121.72 147.89 C 125.03 128.04 134.23 109.40 147.13 94.04 C 163.03 75.39 184.28 61.34 207.62 53.94 C 235.93 47.74 265.41 48.30 293.94 52.81 C 295.82 51.84 297.67 50.55 298.20 48.36 C 298.81 45.28 296.00 42.33 292.96 42.24 C 265.94 37.97 238.20 37.96 211.24 42.62 C 206.10 35.07 200.22 27.99 196.00 19.85 C 194.57 16.70 193.09 12.62 195.51 9.55 Z" />
<path fill="#000000" d=" M 272.03 81.84 C 285.36 81.16 298.53 77.70 311.94 78.48 C 313.59 79.20 314.25 81.55 312.91 82.87 C 311.99 83.99 310.43 83.72 309.16 83.86 C 297.99 84.24 286.91 85.84 275.83 87.24 C 275.67 100.91 275.53 114.58 275.37 128.26 C 286.59 128.29 297.79 127.50 308.94 126.35 C 312.00 125.89 312.77 130.91 309.89 131.63 C 298.46 133.20 286.90 133.63 275.37 133.74 C 275.61 150.09 276.60 166.48 279.73 182.55 C 292.82 183.38 306.13 182.76 318.86 179.43 C 320.34 179.16 322.13 178.29 323.41 179.58 C 325.08 181.00 324.12 184.01 321.93 184.21 C 312.93 186.77 303.57 188.06 294.22 188.26 C 289.75 206.20 284.90 224.32 284.83 242.95 C 284.92 248.30 285.42 253.63 285.51 258.97 C 285.34 261.04 283.07 262.43 281.14 261.75 C 278.89 261.05 278.32 258.53 277.66 256.58 C 274.69 246.45 272.05 236.21 268.76 226.18 C 267.34 222.08 265.83 217.93 263.21 214.42 C 259.72 219.42 257.81 225.29 255.96 231.05 C 253.09 240.18 250.69 249.48 248.85 258.87 C 248.28 261.09 245.01 262.55 243.33 260.62 C 241.91 258.69 241.95 256.17 241.60 253.90 C 239.97 239.20 237.78 224.58 235.71 209.94 C 225.94 219.24 213.14 225.77 199.44 225.77 C 198.41 226.83 197.14 228.41 195.48 227.57 C 193.47 226.87 193.60 224.44 193.17 222.75 C 187.29 189.20 189.24 155.01 189.44 121.14 C 189.56 118.00 194.03 117.93 195.00 120.66 C 212.20 121.34 227.88 131.43 238.08 144.91 C 247.02 156.46 251.92 171.63 249.12 186.19 C 248.16 193.19 244.72 199.53 240.47 205.07 C 242.58 218.60 244.51 232.17 246.21 245.76 C 248.90 235.66 251.42 225.40 255.92 215.91 C 257.52 213.04 259.26 209.26 262.97 208.88 C 266.22 208.67 268.26 211.68 269.63 214.20 C 274.24 223.07 276.71 232.84 279.29 242.44 C 279.77 224.04 283.85 205.96 288.85 188.32 C 284.68 188.21 280.45 188.28 276.33 187.55 C 274.78 187.25 274.78 185.42 274.44 184.23 C 268.26 151.86 270.29 118.77 270.34 86.02 C 270.34 84.50 270.30 82.49 272.03 81.84 Z" />
<path fill="#ffffff" d=" M 194.83 126.16 C 207.27 126.59 218.77 132.90 227.61 141.35 C 236.38 149.72 242.68 160.96 244.17 173.07 C 245.10 181.52 243.72 190.43 239.11 197.68 C 238.24 194.57 237.72 191.37 236.69 188.31 C 235.57 185.75 230.98 187.14 231.73 189.95 C 232.60 194.41 233.75 198.82 234.55 203.30 C 225.26 213.31 212.29 220.73 198.29 220.33 C 192.93 189.23 194.62 157.55 194.83 126.16 Z" />
</svg>
